<mxfile host="app.diagrams.net" modified="2022-07-07T14:51:03.857Z" agent="5.0 (Macintosh; Intel Mac OS X 10_15_7) AppleWebKit/537.36 (KHTML, like Gecko) Chrome/103.0.5060.53 Safari/537.36" etag="z-Ad3IyEEutnwf73cf_6" version="20.0.4" type="github">
  <diagram id="_jH37nIgKsbNKgRoWmOm" name="Page-1">
    <mxGraphModel dx="1131" dy="658" grid="1" gridSize="10" guides="1" tooltips="1" connect="1" arrows="1" fold="1" page="1" pageScale="1" pageWidth="850" pageHeight="1100" math="0" shadow="0">
      <root>
        <mxCell id="0" />
        <mxCell id="1" parent="0" />
        <mxCell id="y87tl3NbrVbizZRoQz8M-2" value="" style="rounded=0;whiteSpace=wrap;html=1;strokeWidth=4;fillColor=none;dashed=1;" parent="1" vertex="1">
          <mxGeometry x="43" y="150" width="510" height="310" as="geometry" />
        </mxCell>
        <mxCell id="y87tl3NbrVbizZRoQz8M-1" value="" style="rounded=0;whiteSpace=wrap;html=1;strokeWidth=4;fillColor=none;dashed=1;" parent="1" vertex="1">
          <mxGeometry x="255" y="700" width="350" height="260" as="geometry" />
        </mxCell>
        <mxCell id="y87tl3NbrVbizZRoQz8M-3" value="redact-usage-report-function-app" style="rounded=1;whiteSpace=wrap;html=1;" parent="1" vertex="1">
          <mxGeometry x="150" y="80" width="238" height="40" as="geometry" />
        </mxCell>
        <mxCell id="y87tl3NbrVbizZRoQz8M-4" value="portal-usage-report" style="rounded=1;whiteSpace=wrap;html=1;" parent="1" vertex="1">
          <mxGeometry x="325" y="640" width="140" height="40" as="geometry" />
        </mxCell>
        <mxCell id="y87tl3NbrVbizZRoQz8M-5" value="task DB" style="shape=cylinder3;whiteSpace=wrap;html=1;boundedLbl=1;backgroundOutline=1;size=15;rounded=0;strokeWidth=1;fillColor=default;" parent="1" vertex="1">
          <mxGeometry x="732" y="250" width="60" height="80" as="geometry" />
        </mxCell>
        <mxCell id="y87tl3NbrVbizZRoQz8M-6" value="insights DB" style="shape=cylinder3;whiteSpace=wrap;html=1;boundedLbl=1;backgroundOutline=1;size=15;rounded=0;strokeWidth=1;fillColor=default;" parent="1" vertex="1">
          <mxGeometry x="732" y="360" width="60" height="80" as="geometry" />
        </mxCell>
        <mxCell id="y87tl3NbrVbizZRoQz8M-7" style="edgeStyle=orthogonalEdgeStyle;rounded=0;orthogonalLoop=1;jettySize=auto;html=1;entryX=1;entryY=0.5;entryDx=0;entryDy=0;startArrow=classic;startFill=1;exitX=0.5;exitY=0;exitDx=0;exitDy=0;exitPerimeter=0;" parent="1" source="y87tl3NbrVbizZRoQz8M-8" target="y87tl3NbrVbizZRoQz8M-20" edge="1">
          <mxGeometry relative="1" as="geometry">
            <Array as="points">
              <mxPoint x="569" y="850" />
            </Array>
          </mxGeometry>
        </mxCell>
        <mxCell id="y87tl3NbrVbizZRoQz8M-8" value="portal DB" style="shape=cylinder3;whiteSpace=wrap;html=1;boundedLbl=1;backgroundOutline=1;size=15;rounded=0;strokeWidth=1;fillColor=default;" parent="1" vertex="1">
          <mxGeometry x="539" y="1000" width="60" height="80" as="geometry" />
        </mxCell>
        <mxCell id="y87tl3NbrVbizZRoQz8M-9" value="Stripe" style="rounded=1;whiteSpace=wrap;html=1;strokeWidth=1;fillColor=default;" parent="1" vertex="1">
          <mxGeometry x="401" y="1000" width="120" height="60" as="geometry" />
        </mxCell>
        <mxCell id="y87tl3NbrVbizZRoQz8M-13" value="Service Bus" style="rounded=1;whiteSpace=wrap;html=1;strokeWidth=1;fillColor=default;" parent="1" vertex="1">
          <mxGeometry x="342" y="170" width="121" height="40" as="geometry" />
        </mxCell>
        <mxCell id="y87tl3NbrVbizZRoQz8M-14" value="" style="aspect=fixed;html=1;points=[];align=center;image;fontSize=12;image=img/lib/azure2/compute/Function_Apps.svg;rounded=0;strokeWidth=1;fillColor=default;" parent="1" vertex="1">
          <mxGeometry x="485" y="630" width="68" height="60" as="geometry" />
        </mxCell>
        <mxCell id="y87tl3NbrVbizZRoQz8M-15" value="" style="aspect=fixed;html=1;points=[];align=center;image;fontSize=12;image=img/lib/azure2/compute/Function_Apps.svg;rounded=0;strokeWidth=1;fillColor=default;" parent="1" vertex="1">
          <mxGeometry x="409" y="70" width="68" height="60" as="geometry" />
        </mxCell>
        <mxCell id="y87tl3NbrVbizZRoQz8M-16" value="fn" style="shape=mxgraph.electrical.abstract.function;html=1;shadow=0;dashed=0;align=center;strokeWidth=1;fontSize=24;rounded=0;fillColor=default;" parent="1" vertex="1">
          <mxGeometry x="281" y="830" width="40" height="40" as="geometry" />
        </mxCell>
        <mxCell id="y87tl3NbrVbizZRoQz8M-17" style="edgeStyle=orthogonalEdgeStyle;rounded=0;orthogonalLoop=1;jettySize=auto;html=1;entryX=0.5;entryY=0;entryDx=0;entryDy=0;" parent="1" source="y87tl3NbrVbizZRoQz8M-20" target="y87tl3NbrVbizZRoQz8M-9" edge="1">
          <mxGeometry relative="1" as="geometry">
            <Array as="points">
              <mxPoint x="421" y="910" />
              <mxPoint x="461" y="910" />
            </Array>
          </mxGeometry>
        </mxCell>
        <mxCell id="y87tl3NbrVbizZRoQz8M-18" value="if ( portal user )" style="edgeLabel;html=1;align=center;verticalAlign=middle;resizable=0;points=[];" parent="y87tl3NbrVbizZRoQz8M-17" vertex="1" connectable="0">
          <mxGeometry x="-0.075" y="5" relative="1" as="geometry">
            <mxPoint as="offset" />
          </mxGeometry>
        </mxCell>
        <mxCell id="y87tl3NbrVbizZRoQz8M-19" style="edgeStyle=orthogonalEdgeStyle;rounded=0;orthogonalLoop=1;jettySize=auto;html=1;entryX=0.5;entryY=0;entryDx=0;entryDy=0;" parent="1" source="y87tl3NbrVbizZRoQz8M-20" target="y87tl3NbrVbizZRoQz8M-23" edge="1">
          <mxGeometry relative="1" as="geometry">
            <Array as="points">
              <mxPoint x="381" y="900" />
              <mxPoint x="321" y="900" />
            </Array>
          </mxGeometry>
        </mxCell>
        <mxCell id="y87tl3NbrVbizZRoQz8M-20" value="redact_consumption_report" style="rounded=1;whiteSpace=wrap;html=1;" parent="1" vertex="1">
          <mxGeometry x="341" y="830" width="160" height="40" as="geometry" />
        </mxCell>
        <mxCell id="y87tl3NbrVbizZRoQz8M-21" style="edgeStyle=orthogonalEdgeStyle;rounded=0;orthogonalLoop=1;jettySize=auto;html=1;entryX=0.5;entryY=0;entryDx=0;entryDy=0;" parent="1" source="y87tl3NbrVbizZRoQz8M-22" target="y87tl3NbrVbizZRoQz8M-20" edge="1">
          <mxGeometry relative="1" as="geometry" />
        </mxCell>
        <mxCell id="y87tl3NbrVbizZRoQz8M-22" value="HTTP" style="rounded=1;whiteSpace=wrap;html=1;strokeWidth=1;fillColor=default;" parent="1" vertex="1">
          <mxGeometry x="381" y="720" width="80" height="40" as="geometry" />
        </mxCell>
        <mxCell id="y87tl3NbrVbizZRoQz8M-23" value="Kibana" style="rounded=1;whiteSpace=wrap;html=1;strokeWidth=1;fillColor=default;" parent="1" vertex="1">
          <mxGeometry x="261" y="1000" width="120" height="60" as="geometry" />
        </mxCell>
        <mxCell id="y87tl3NbrVbizZRoQz8M-26" value="HTTP" style="rounded=1;whiteSpace=wrap;html=1;strokeWidth=1;fillColor=default;" parent="1" vertex="1">
          <mxGeometry x="163" y="170" width="120" height="40" as="geometry" />
        </mxCell>
        <mxCell id="y87tl3NbrVbizZRoQz8M-27" value="fn" style="shape=mxgraph.electrical.abstract.function;html=1;shadow=0;dashed=0;align=center;strokeWidth=1;fontSize=24;rounded=0;fillColor=default;" parent="1" vertex="1">
          <mxGeometry x="315" y="240" width="40" height="40" as="geometry" />
        </mxCell>
        <mxCell id="y87tl3NbrVbizZRoQz8M-29" value="portal_update_subscriber" style="rounded=1;whiteSpace=wrap;html=1;" parent="1" vertex="1">
          <mxGeometry x="375" y="240" width="160" height="40" as="geometry" />
        </mxCell>
        <mxCell id="y87tl3NbrVbizZRoQz8M-30" value="fn" style="shape=mxgraph.electrical.abstract.function;html=1;shadow=0;dashed=0;align=center;strokeWidth=1;fontSize=24;rounded=0;fillColor=default;" parent="1" vertex="1">
          <mxGeometry x="315" y="320" width="40" height="40" as="geometry" />
        </mxCell>
        <mxCell id="y87tl3NbrVbizZRoQz8M-32" value="portal_create_subscriber" style="rounded=1;whiteSpace=wrap;html=1;" parent="1" vertex="1">
          <mxGeometry x="375" y="320" width="160" height="40" as="geometry" />
        </mxCell>
        <mxCell id="y87tl3NbrVbizZRoQz8M-33" value="fn" style="shape=mxgraph.electrical.abstract.function;html=1;shadow=0;dashed=0;align=center;strokeWidth=1;fontSize=24;rounded=0;fillColor=default;" parent="1" vertex="1">
          <mxGeometry x="313" y="400" width="40" height="40" as="geometry" />
        </mxCell>
        <mxCell id="y87tl3NbrVbizZRoQz8M-35" value="email_notif_subscriber" style="rounded=1;whiteSpace=wrap;html=1;" parent="1" vertex="1">
          <mxGeometry x="373" y="400" width="161" height="40" as="geometry" />
        </mxCell>
        <mxCell id="y87tl3NbrVbizZRoQz8M-36" value="fn" style="shape=mxgraph.electrical.abstract.function;html=1;shadow=0;dashed=0;align=center;strokeWidth=1;fontSize=24;rounded=0;fillColor=default;" parent="1" vertex="1">
          <mxGeometry x="65" y="240" width="40" height="40" as="geometry" />
        </mxCell>
        <mxCell id="y87tl3NbrVbizZRoQz8M-39" value="redact_consumption_report" style="rounded=1;whiteSpace=wrap;html=1;" parent="1" vertex="1">
          <mxGeometry x="123" y="320" width="160" height="40" as="geometry" />
        </mxCell>
        <mxCell id="y87tl3NbrVbizZRoQz8M-40" value="fn" style="shape=mxgraph.electrical.abstract.function;html=1;shadow=0;dashed=0;align=center;strokeWidth=1;fontSize=24;rounded=0;fillColor=default;" parent="1" vertex="1">
          <mxGeometry x="63" y="320" width="40" height="40" as="geometry" />
        </mxCell>
        <mxCell id="y87tl3NbrVbizZRoQz8M-42" value="redact_insights_report" style="rounded=1;whiteSpace=wrap;html=1;" parent="1" vertex="1">
          <mxGeometry x="123" y="240" width="160" height="40" as="geometry" />
        </mxCell>
        <mxCell id="y87tl3NbrVbizZRoQz8M-43" value="" style="sketch=0;aspect=fixed;html=1;points=[];align=center;image;fontSize=12;image=img/lib/mscae/SendGrid_Accounts.svg;rounded=0;dashed=1;strokeWidth=4;fillColor=none;" parent="1" vertex="1">
          <mxGeometry x="778" y="165" width="50" height="50" as="geometry" />
        </mxCell>
        <mxCell id="y87tl3NbrVbizZRoQz8M-44" value="Sendgrid" style="rounded=1;whiteSpace=wrap;html=1;strokeWidth=1;fillColor=default;" parent="1" vertex="1">
          <mxGeometry x="690" y="160" width="70" height="60" as="geometry" />
        </mxCell>
      </root>
    </mxGraphModel>
  </diagram>
</mxfile>
